<svg xmlns="http://www.w3.org/2000/svg" width="1200" height="630" viewBox="0 0 1200 630">
  <defs>
    <pattern id="grid" width="30" height="30" patternUnits="userSpaceOnUse">
      <path d="M 30 0 L 0 0 0 30" fill="none" stroke="rgba(255,255,255,0.02)" stroke-width="1"/>
    </pattern>
  </defs>

  <rect width="1200" height="630" fill="#0a0a0a"/>
  <rect width="1200" height="630" fill="url(#grid)"/>

  <!-- Left side: branding -->
  <g transform="translate(80, 80)">
    <!-- Icon -->
    <rect width="56" height="56" rx="14" fill="#fafafa"/>
    <rect x="10" y="14" width="30" height="7" rx="1.5" fill="#0a0a0a"/>
    <rect x="21" y="14" width="10" height="28" rx="1.5" fill="#0a0a0a"/>
    <rect x="15" y="14" width="30" height="7" rx="1.5" fill="#0a0a0a" opacity="0.12"/>
    <!-- Title -->
    <text x="70" y="24" font-family="-apple-system,BlinkMacSystemFont,'SF Pro Display','Segoe UI',Roboto,sans-serif" font-size="36" font-weight="700" fill="#fafafa" letter-spacing="-2">Telvar</text>
    <text x="70" y="48" font-family="-apple-system,sans-serif" font-size="14" fill="rgba(255,255,255,0.35)" letter-spacing="3">DEVELOPER PORTAL</text>
  </g>

  <!-- Headline -->
  <text x="80" y="210" font-family="-apple-system,BlinkMacSystemFont,'SF Pro Display',sans-serif" font-size="34" font-weight="600" fill="#fafafa">Your infrastructure already</text>
  <text x="80" y="252" font-family="-apple-system,BlinkMacSystemFont,'SF Pro Display',sans-serif" font-size="34" font-weight="600" fill="#fafafa">describes itself.</text>
  <text x="80" y="294" font-family="-apple-system,BlinkMacSystemFont,'SF Pro Display',sans-serif" font-size="34" font-weight="600" fill="rgba(255,255,255,0.4)">We just read it.</text>

  <!-- Feature list -->
  <g transform="translate(80, 340)">
    <rect width="4" height="4" rx="1" fill="rgba(255,255,255,0.4)" y="6"/>
    <text x="16" y="12" font-family="-apple-system,sans-serif" font-size="15" fill="rgba(255,255,255,0.6)">Auto-discovers services from GitHub + Kubernetes</text>
  </g>
  <g transform="translate(80, 368)">
    <rect width="4" height="4" rx="1" fill="rgba(255,255,255,0.4)" y="6"/>
    <text x="16" y="12" font-family="-apple-system,sans-serif" font-size="15" fill="rgba(255,255,255,0.6)">Scorecards, CVE checking, docs viewer</text>
  </g>
  <g transform="translate(80, 396)">
    <rect width="4" height="4" rx="1" fill="rgba(255,255,255,0.4)" y="6"/>
    <text x="16" y="12" font-family="-apple-system,sans-serif" font-size="15" fill="rgba(255,255,255,0.6)">Single Go binary, SQLite, zero config</text>
  </g>
  <g transform="translate(80, 424)">
    <rect width="4" height="4" rx="1" fill="rgba(255,255,255,0.4)" y="6"/>
    <text x="16" y="12" font-family="-apple-system,sans-serif" font-size="15" fill="rgba(255,255,255,0.6)">Open source (AGPLv3)</text>
  </g>

  <!-- Right side: mock UI -->
  <g transform="translate(620, 60)">
    <rect width="510" height="480" rx="12" fill="#111111" stroke="rgba(255,255,255,0.06)" stroke-width="1"/>
    <!-- Title bar -->
    <rect width="510" height="36" rx="12" fill="#181818"/>
    <rect y="24" width="510" height="12" fill="#181818"/>
    <circle cx="20" cy="18" r="4.5" fill="rgba(255,255,255,0.12)"/>
    <circle cx="36" cy="18" r="4.5" fill="rgba(255,255,255,0.12)"/>
    <circle cx="52" cy="18" r="4.5" fill="rgba(255,255,255,0.12)"/>
    <text x="255" y="22" text-anchor="middle" font-family="JetBrains Mono,monospace" font-size="10" fill="rgba(255,255,255,0.2)">telvar - localhost:7007</text>

    <!-- Nav -->
    <rect y="36" width="510" height="28" fill="rgba(255,255,255,0.02)"/>
    <!-- Icon mini in nav -->
    <rect x="14" y="41" width="16" height="16" rx="4" fill="#fafafa"/>
    <rect x="17" y="45" width="9" height="2.5" rx="0.5" fill="#111"/>
    <rect x="20.5" y="45" width="3.5" height="9" rx="0.5" fill="#111"/>
    <text x="40" y="54" font-family="-apple-system,sans-serif" font-size="11" font-weight="600" fill="rgba(255,255,255,0.7)">Services</text>
    <text x="100" y="54" font-family="-apple-system,sans-serif" font-size="11" fill="rgba(255,255,255,0.25)">Teams</text>

    <!-- Header -->
    <text x="20" y="90" font-family="-apple-system,sans-serif" font-size="16" font-weight="600" fill="rgba(255,255,255,0.9)">Services</text>
    <rect x="420" y="75" width="70" height="22" rx="11" fill="rgba(255,255,255,0.04)" stroke="rgba(255,255,255,0.08)" stroke-width="1"/>
    <text x="455" y="90" text-anchor="middle" font-family="-apple-system,sans-serif" font-size="11" fill="rgba(255,255,255,0.4)">27</text>

    <!-- Search -->
    <rect x="20" y="105" width="470" height="28" rx="6" fill="rgba(255,255,255,0.03)" stroke="rgba(255,255,255,0.06)" stroke-width="1"/>
    <text x="32" y="123" font-family="-apple-system,sans-serif" font-size="11" fill="rgba(255,255,255,0.2)">Search services...</text>

    <!-- Cards row 1 -->
    <g transform="translate(20, 148)">
      <rect width="228" height="85" rx="8" fill="rgba(255,255,255,0.02)" stroke="rgba(255,255,255,0.05)" stroke-width="1"/>
      <text x="12" y="22" font-family="-apple-system,sans-serif" font-size="13" font-weight="600" fill="rgba(255,255,255,0.85)">flyte</text>
      <text x="12" y="38" font-family="-apple-system,sans-serif" font-size="10" fill="rgba(255,255,255,0.3)">Workflow orchestration platform</text>
      <rect x="12" y="48" width="55" height="14" rx="7" fill="rgba(255,255,255,0.05)"/>
      <text x="39" y="58" text-anchor="middle" font-family="-apple-system,sans-serif" font-size="9" fill="rgba(255,255,255,0.35)">component</text>
      <rect x="72" y="48" width="24" height="14" rx="7" fill="rgba(255,255,255,0.05)"/>
      <text x="84" y="58" text-anchor="middle" font-family="-apple-system,sans-serif" font-size="9" fill="rgba(255,255,255,0.35)">go</text>
      <rect x="12" y="70" width="60" height="3" rx="1.5" fill="rgba(255,255,255,0.06)"/>
      <rect x="12" y="70" width="48" height="3" rx="1.5" fill="#fafafa" opacity="0.5"/>
      <text x="78" y="74" font-family="JetBrains Mono,monospace" font-size="9" font-weight="600" fill="rgba(255,255,255,0.5)">80%</text>
    </g>

    <g transform="translate(260, 148)">
      <rect width="228" height="85" rx="8" fill="rgba(255,255,255,0.02)" stroke="rgba(255,255,255,0.05)" stroke-width="1"/>
      <text x="12" y="22" font-family="-apple-system,sans-serif" font-size="13" font-weight="600" fill="rgba(255,255,255,0.85)">flytekit</text>
      <text x="12" y="38" font-family="-apple-system,sans-serif" font-size="10" fill="rgba(255,255,255,0.3)">Python SDK for Flyte</text>
      <rect x="12" y="48" width="55" height="14" rx="7" fill="rgba(255,255,255,0.05)"/>
      <text x="39" y="58" text-anchor="middle" font-family="-apple-system,sans-serif" font-size="9" fill="rgba(255,255,255,0.35)">component</text>
      <rect x="72" y="48" width="42" height="14" rx="7" fill="rgba(255,255,255,0.05)"/>
      <text x="93" y="58" text-anchor="middle" font-family="-apple-system,sans-serif" font-size="9" fill="rgba(255,255,255,0.35)">python</text>
      <rect x="12" y="70" width="60" height="3" rx="1.5" fill="rgba(255,255,255,0.06)"/>
      <rect x="12" y="70" width="36" height="3" rx="1.5" fill="#fafafa" opacity="0.3"/>
      <text x="78" y="74" font-family="JetBrains Mono,monospace" font-size="9" font-weight="600" fill="rgba(255,255,255,0.35)">60%</text>
    </g>

    <!-- Cards row 2 -->
    <g transform="translate(20, 245)">
      <rect width="228" height="85" rx="8" fill="rgba(255,255,255,0.02)" stroke="rgba(255,255,255,0.05)" stroke-width="1"/>
      <text x="12" y="22" font-family="-apple-system,sans-serif" font-size="13" font-weight="600" fill="rgba(255,255,255,0.85)">flyteconsole</text>
      <text x="12" y="38" font-family="-apple-system,sans-serif" font-size="10" fill="rgba(255,255,255,0.3)">Web UI for Flyte</text>
      <rect x="12" y="48" width="55" height="14" rx="7" fill="rgba(255,255,255,0.05)"/>
      <text x="39" y="58" text-anchor="middle" font-family="-apple-system,sans-serif" font-size="9" fill="rgba(255,255,255,0.35)">component</text>
      <rect x="72" y="48" width="52" height="14" rx="7" fill="rgba(255,255,255,0.05)"/>
      <text x="98" y="58" text-anchor="middle" font-family="-apple-system,sans-serif" font-size="9" fill="rgba(255,255,255,0.35)">javascript</text>
      <rect x="12" y="70" width="60" height="3" rx="1.5" fill="rgba(255,255,255,0.06)"/>
      <rect x="12" y="70" width="12" height="3" rx="1.5" fill="#fafafa" opacity="0.2"/>
      <text x="78" y="74" font-family="JetBrains Mono,monospace" font-size="9" font-weight="600" fill="rgba(255,255,255,0.2)">20%</text>
    </g>

    <g transform="translate(260, 245)">
      <rect width="228" height="85" rx="8" fill="rgba(255,255,255,0.02)" stroke="rgba(255,255,255,0.05)" stroke-width="1"/>
      <text x="12" y="22" font-family="-apple-system,sans-serif" font-size="13" font-weight="600" fill="rgba(255,255,255,0.85)">flyteidl</text>
      <text x="12" y="38" font-family="-apple-system,sans-serif" font-size="10" fill="rgba(255,255,255,0.3)">Protobuf definitions</text>
      <rect x="12" y="48" width="24" height="14" rx="7" fill="rgba(255,255,255,0.05)"/>
      <text x="24" y="58" text-anchor="middle" font-family="-apple-system,sans-serif" font-size="9" fill="rgba(255,255,255,0.35)">api</text>
      <rect x="40" y="48" width="24" height="14" rx="7" fill="rgba(255,255,255,0.05)"/>
      <text x="52" y="58" text-anchor="middle" font-family="-apple-system,sans-serif" font-size="9" fill="rgba(255,255,255,0.35)">go</text>
      <rect x="12" y="70" width="60" height="3" rx="1.5" fill="rgba(255,255,255,0.06)"/>
      <rect x="12" y="70" width="48" height="3" rx="1.5" fill="#fafafa" opacity="0.5"/>
      <text x="78" y="74" font-family="JetBrains Mono,monospace" font-size="9" font-weight="600" fill="rgba(255,255,255,0.5)">80%</text>
    </g>

    <!-- Cards row 3 (partial, fade) -->
    <g transform="translate(20, 342)" opacity="0.4">
      <rect width="228" height="85" rx="8" fill="rgba(255,255,255,0.02)" stroke="rgba(255,255,255,0.05)" stroke-width="1"/>
      <text x="12" y="22" font-family="-apple-system,sans-serif" font-size="13" font-weight="600" fill="rgba(255,255,255,0.85)">flyte-docs</text>
    </g>
    <g transform="translate(260, 342)" opacity="0.4">
      <rect width="228" height="85" rx="8" fill="rgba(255,255,255,0.02)" stroke="rgba(255,255,255,0.05)" stroke-width="1"/>
      <text x="12" y="22" font-family="-apple-system,sans-serif" font-size="13" font-weight="600" fill="rgba(255,255,255,0.85)">flyte-sdk</text>
    </g>

    <!-- Fade gradient at bottom -->
    <rect y="400" width="510" height="80" rx="0" fill="url(#fade)" opacity="0.8"/>

    <!-- Scrollbar -->
    <rect x="500" y="148" width="2.5" height="250" rx="1.25" fill="rgba(255,255,255,0.04)"/>
    <rect x="500" y="148" width="2.5" height="100" rx="1.25" fill="rgba(255,255,255,0.1)"/>
  </g>

  <!-- Bottom -->
  <text x="80" y="530" font-family="-apple-system,sans-serif" font-size="13" fill="rgba(255,255,255,0.2)">github.com/atoolz/telvar</text>
  <g transform="translate(80, 548)">
    <rect width="140" height="26" rx="13" fill="rgba(255,255,255,0.06)"/>
    <text x="70" y="17" text-anchor="middle" font-family="-apple-system,sans-serif" font-size="11" font-weight="500" fill="rgba(255,255,255,0.4)">Go + SQLite + htmx</text>
  </g>

  <!-- Top line -->
  <rect x="0" y="0" width="1200" height="1" fill="rgba(255,255,255,0.06)"/>
</svg>
